HIERARCHY
ROOT Hips
{
	OFFSET -3.958830 18.904000 13.208200
	CHANNELS 6 Xposition Yposition Zposition Zrotation Yrotation Xrotation 
	JOINT LHipJoint
	{
		OFFSET 0.000000 0.000000 0.000000
		CHANNELS 3 Zrotation Yrotation Xrotation
		JOINT LeftUpLeg
		{
			OFFSET 1.800000 -1.400000 0.085000
			CHANNELS 3 Zrotation Yrotation Xrotation
			JOINT LeftLeg
			{
				OFFSET 2.215000 -6.000000 0.000000
				CHANNELS 3 Zrotation Yrotation Xrotation
				JOINT LeftFoot
				{
					OFFSET 2.500000 -6.900000 0.000000
					CHANNELS 3 Zrotation Yrotation Xrotation
					JOINT LeftToeBase
					{
						OFFSET 0.200000 -0.500000 1.950000
						CHANNELS 3 Zrotation Yrotation Xrotation
						End Site
						{
							OFFSET 0.000000 0.000000 0.000000
						}
					}
				}
			}
		}
	}
	JOINT RHipJoint
	{
		OFFSET 0.000000 0.000000 0.000000
		CHANNELS 3 Zrotation Yrotation Xrotation
		JOINT RightUpLeg
		{
			OFFSET -1.800000 -1.400000 0.085000
			CHANNELS 3 Zrotation Yrotation Xrotation
			JOINT RightLeg
			{
				OFFSET -2.215000 -6.000000 0.000000
				CHANNELS 3 Zrotation Yrotation Xrotation
				JOINT RightFoot
				{
					OFFSET -2.500000 -6.900000 0.000000
					CHANNELS 3 Zrotation Yrotation Xrotation
					JOINT RightToeBase
					{
						OFFSET -0.200000 -0.500000 1.950000
						CHANNELS 3 Zrotation Yrotation Xrotation
						End Site
						{
							OFFSET 0.000000 0.000000 0.000000
						}
					}
				}
			}
		}
	}
	JOINT LowerBack
	{
		OFFSET 0.000000 0.000000 0.000000
		CHANNELS 3 Zrotation Yrotation Xrotation
		JOINT Spine
		{
			OFFSET -0.087000 1.940000 -0.288900
			CHANNELS 3 Zrotation Yrotation Xrotation
			JOINT Spine1
			{
				OFFSET 0.000000 1.950000 0.060000
				CHANNELS 3 Zrotation Yrotation Xrotation
				JOINT Neck
				{
					OFFSET 0.000000 0.000000 0.000000
					CHANNELS 3 Zrotation Yrotation Xrotation
					JOINT Neck1
					{
						OFFSET 0.000000 1.600000 0.340000
						CHANNELS 3 Zrotation Yrotation Xrotation
						JOINT Head
						{
							OFFSET 0.000000 1.667000 -0.240000
							CHANNELS 3 Zrotation Yrotation Xrotation
							End Site
							{
								OFFSET 0.000000 0.000000 0.000000
							}
						}
					}
				}
				JOINT LeftShoulder
				{
					OFFSET 0.000000 0.000000 0.000000
					CHANNELS 3 Zrotation Yrotation Xrotation
					JOINT LeftArm
					{
						OFFSET 2.700000 1.550000 -0.730000
						CHANNELS 3 Zrotation Yrotation Xrotation
						JOINT LeftForeArm
						{
							OFFSET 5.450000 0.000000 0.000000
							CHANNELS 3 Zrotation Yrotation Xrotation
							JOINT LeftHand
							{
								OFFSET 3.450000 0.000000 0.000000
								CHANNELS 3 Zrotation Yrotation Xrotation
								JOINT LeftHandIndex1
								{
									OFFSET 0.750000 0.000000 0.000000
									CHANNELS 3 Zrotation Yrotation Xrotation
									End Site
									{
										OFFSET 0.000000 0.000000 0.000000
									}
								}
							}
						}
					}
				}
				JOINT RightShoulder
				{
					OFFSET 0.000000 0.000000 0.000000
					CHANNELS 3 Zrotation Yrotation Xrotation
					JOINT RightArm
					{
						OFFSET -2.700000 1.550000 -0.730000
						CHANNELS 3 Zrotation Yrotation Xrotation
						JOINT RightForeArm
						{
							OFFSET -5.450000 0.000000 0.000000
							CHANNELS 3 Zrotation Yrotation Xrotation
							JOINT RightHand
							{
								OFFSET -3.450000 0.000000 0.000000
								CHANNELS 3 Zrotation Yrotation Xrotation
								JOINT RightHandIndex1
								{
									OFFSET -0.750000 0.000000 0.000000
									CHANNELS 3 Zrotation Yrotation Xrotation
									End Site
									{
										OFFSET 0.000000 0.000000 0.000000
									}
								}
							}
						}
					}
				}
			}
		}
	}
}
MOTION
Frames: 6
Frame Time: 0.016667
0.753200 17.313310 -1.446310 -4.004644 23.220715 4.872975 -15.300961 12.713189 2.768690 6.781186 -3.808023 -23.044584 -6.249712 6.158934 19.558908 -1.169512 4.808086 3.165836 0.737620 0.370020 0.304230 18.274028 -10.442295 2.818596 -10.646672 2.843080 -29.821850 6.176384 -3.902849 11.992639 0.246642 -2.978190 3.549149 0.675380 0.804830 0.226710 -3.719933 -1.226350 -6.629635 7.420312 -1.262442 3.329325 0.884476 -1.688146 12.416218 1.785793 3.564586 -3.901810 5.221782 -7.277920 22.821327 -4.779550 -6.171170 -3.259940 -14.810530 4.492734 1.009647 -22.315166 7.350228 -0.961499 -173.798496 -71.839020 163.933377 -4.251282 3.636579 0.108580 0.729060 -0.638290 0.416340 12.295793 -7.945565 0.155027 26.493695 -13.111961 -11.169135 119.250070 74.176484 92.837656 1.482900 -0.305708 -0.435450 0.524350 0.008140 -0.267130 
0.743670 17.314700 -1.466840 -4.076334 23.933593 4.838059 -15.304791 12.656053 2.904706 7.057364 -4.170850 -24.658408 -6.431721 6.450299 21.082347 -1.183484 4.975457 3.079419 0.736710 0.359620 0.329550 18.272830 -10.491620 2.750234 -10.478463 2.832611 -30.018959 5.631763 -4.204585 14.213080 0.227770 -3.040382 3.522212 0.669020 0.778170 0.206520 -3.731141 -1.165320 -6.685276 7.703743 -1.224695 4.121232 0.852042 -1.519451 12.400777 2.018980 3.817727 -3.869784 5.596168 -7.857201 23.122895 -4.850350 -6.460320 -4.175890 -15.608355 4.429554 0.947784 -23.833924 7.539896 -1.348223 -170.988310 -70.300806 159.058737 -4.216947 3.572802 0.160870 0.699430 -0.614860 0.397380 12.643459 -8.095952 0.234019 26.203481 -13.526471 -11.130463 123.833186 73.106512 97.048124 1.335017 -0.808877 -0.456170 0.551990 0.015730 -0.291560 
0.725440 17.323070 -1.511690 -4.081631 24.808770 3.968319 -15.279440 12.539590 3.168822 7.969537 -4.706694 -26.527411 -7.671678 7.402736 24.180914 -1.114990 5.447236 2.824841 0.770340 0.363610 0.428870 18.283586 -10.623924 2.647625 -10.464810 2.722633 -29.749196 4.928935 -4.789672 17.872733 0.120065 -3.179704 3.421738 0.626730 0.622530 0.184070 -3.838644 -0.944704 -6.916513 8.929854 -1.233641 7.056560 -0.278129 -1.047468 12.359224 2.649934 4.095662 -4.002668 5.910830 -8.721336 24.669565 -4.312560 -6.787250 -7.327400 -17.330728 4.116607 0.764732 -26.121812 8.273773 -2.586808 -167.006798 -67.683706 150.986932 -4.054153 3.496770 0.321350 0.551250 -0.484150 0.350630 13.060670 -8.049006 0.695767 26.862514 -13.866328 -11.333019 130.884437 70.931505 102.264883 1.286973 -1.308342 -0.445470 0.541890 -0.008470 -0.346580 
0.710580 17.316440 -1.566340 -3.195700 25.879683 3.470351 -15.283744 12.379185 3.533679 8.290712 -5.636895 -28.564149 -9.297962 8.611948 27.895604 -1.022653 6.125459 2.509625 0.824780 0.389610 0.517060 18.274527 -10.714239 2.497869 -11.153135 2.366228 -29.256874 4.000843 -5.327969 21.305109 0.003473 -3.420982 3.290309 0.609160 0.492880 0.174280 -3.865237 -0.802643 -7.182025 9.215361 -1.290376 10.444273 -1.669549 -0.556322 12.179947 3.396933 4.578497 -4.013195 6.606799 -9.464802 26.083356 -3.388560 -7.081510 -10.512160 -19.407006 4.038646 0.396870 -28.317465 8.879733 -3.549713 -163.797819 -63.711370 142.310926 -3.921817 3.476317 0.472280 0.424690 -0.370520 0.325260 13.653966 -8.384806 1.068104 28.049942 -14.548181 -11.576621 138.845562 68.332741 108.307207 1.249003 -1.646513 -0.437850 0.534100 -0.035610 -0.396100 
0.677790 17.280660 -1.625880 -2.492053 26.621334 3.023740 -15.296617 12.121771 3.999325 9.400590 -6.686646 -31.216550 -11.534882 10.331292 31.968826 -0.857720 7.057741 2.112404 0.884340 0.443380 0.601690 18.279269 -10.727891 2.349284 -11.300144 2.235163 -28.963671 2.626432 -5.616207 24.698586 -0.109558 -3.662243 3.170426 0.609430 0.370830 0.158580 -3.876649 -0.646451 -7.507258 9.620496 -1.254275 14.275003 -2.832759 0.053439 11.417621 4.118188 4.908961 -3.896893 7.181286 -10.006152 26.976686 -2.736750 -6.997350 -13.441120 -21.395377 4.386899 -0.161911 -30.615128 9.251193 -4.308009 -159.056782 -60.103911 130.786394 -3.806865 3.489330 0.585880 0.315130 -0.265200 0.309460 14.139258 -8.943138 1.233123 28.654175 -15.285409 -11.607072 147.033271 65.437702 115.214469 1.241671 -1.873885 -0.422100 0.524780 -0.078970 -0.433130 
0.636640 17.225430 -1.677600 -2.089123 27.205471 2.433457 -15.305319 11.801617 4.500116 11.440816 -7.521192 -33.666440 -14.702470 12.658405 35.733202 -0.583078 8.164832 1.669406 0.937640 0.521650 0.674560 18.299772 -10.705619 2.193263 -11.167061 2.181393 -28.325219 1.433456 -5.741512 27.220411 -0.220615 -3.835996 3.099240 0.600370 0.242080 0.138640 -3.906512 -0.426716 -7.846289 10.308044 -1.397559 18.260805 -4.119364 0.545850 10.585713 4.832421 5.224026 -4.013855 7.822506 -10.464811 27.783109 -2.148220 -6.628450 -16.588560 -22.587602 4.944003 -0.568688 -33.356988 10.029278 -5.434173 -156.210407 -57.208104 122.263405 -3.681964 3.508584 0.668980 0.207670 -0.148140 0.296950 13.805113 -9.616599 1.550676 30.316887 -15.377594 -11.462725 152.858072 61.795874 118.728718 1.294945 -1.994512 -0.376860 0.505750 -0.139130 -0.448220 
